<svg width="90" height="14" viewBox="0 0 90 14" fill="none" xmlns="http://www.w3.org/2000/svg">
<path d="M12.8166 5.59664C12.7764 5.46691 12.6695 5.37236 12.5407 5.35278L8.92401 4.80182L7.30651 1.36622C7.24896 1.24392 7.13013 1.1665 7.00004 1.1665C6.86993 1.1665 6.75112 1.24392 6.69354 1.36622L5.07598 4.80182L1.45933 5.35278C1.33061 5.37236 1.22363 5.46691 1.18343 5.59662C1.14321 5.72635 1.17676 5.86874 1.26993 5.96393L3.8869 8.63817L3.2692 12.4143C3.24719 12.5487 3.29992 12.6846 3.40517 12.7648C3.46471 12.8101 3.53524 12.8332 3.6061 12.8332C3.66051 12.8332 3.71511 12.8196 3.7651 12.792L7.00002 11.0091L10.2348 12.792C10.35 12.8555 10.4895 12.8449 10.5947 12.7647C10.7 12.6846 10.7527 12.5487 10.7308 12.4143L10.1129 8.63817L12.7301 5.9639C12.8233 5.86874 12.8568 5.72635 12.8166 5.59664Z" fill="#FFA800"/>
<path d="M31.8166 5.59664C31.7764 5.46691 31.6695 5.37236 31.5407 5.35278L27.924 4.80182L26.3065 1.36622C26.249 1.24392 26.1301 1.1665 26 1.1665C25.8699 1.1665 25.7511 1.24392 25.6935 1.36622L24.076 4.80182L20.4593 5.35278C20.3306 5.37236 20.2236 5.46691 20.1834 5.59662C20.1432 5.72635 20.1768 5.86874 20.2699 5.96393L22.8869 8.63817L22.2692 12.4143C22.2472 12.5487 22.2999 12.6846 22.4052 12.7648C22.4647 12.8101 22.5352 12.8332 22.6061 12.8332C22.6605 12.8332 22.7151 12.8196 22.7651 12.792L26 11.0091L29.2348 12.792C29.35 12.8555 29.4895 12.8449 29.5947 12.7647C29.7 12.6846 29.7527 12.5487 29.7308 12.4143L29.1129 8.63817L31.7301 5.9639C31.8233 5.86874 31.8568 5.72635 31.8166 5.59664Z" fill="#FFA800"/>
<path d="M50.8166 5.59664C50.7764 5.46691 50.6695 5.37236 50.5407 5.35278L46.924 4.80182L45.3065 1.36622C45.249 1.24392 45.1301 1.1665 45 1.1665C44.8699 1.1665 44.7511 1.24392 44.6935 1.36622L43.076 4.80182L39.4593 5.35278C39.3306 5.37236 39.2236 5.46691 39.1834 5.59662C39.1432 5.72635 39.1768 5.86874 39.2699 5.96393L41.8869 8.63817L41.2692 12.4143C41.2472 12.5487 41.2999 12.6846 41.4052 12.7648C41.4647 12.8101 41.5352 12.8332 41.6061 12.8332C41.6605 12.8332 41.7151 12.8196 41.7651 12.792L45 11.0091L48.2348 12.792C48.35 12.8555 48.4895 12.8449 48.5947 12.7647C48.7 12.6846 48.7527 12.5487 48.7308 12.4143L48.1129 8.63817L50.7301 5.9639C50.8233 5.86874 50.8568 5.72635 50.8166 5.59664Z" fill="#FFA800"/>
<path d="M69.8166 5.59664C69.7764 5.46691 69.6695 5.37236 69.5407 5.35278L65.924 4.80182L64.3065 1.36622C64.249 1.24392 64.1301 1.1665 64 1.1665C63.8699 1.1665 63.7511 1.24392 63.6935 1.36622L62.076 4.80182L58.4593 5.35278C58.3306 5.37236 58.2236 5.46691 58.1834 5.59662C58.1432 5.72635 58.1768 5.86874 58.2699 5.96393L60.8869 8.63817L60.2692 12.4143C60.2472 12.5487 60.2999 12.6846 60.4052 12.7648C60.4647 12.8101 60.5352 12.8332 60.6061 12.8332C60.6605 12.8332 60.7151 12.8196 60.7651 12.792L64 11.0091L67.2348 12.792C67.35 12.8555 67.4895 12.8449 67.5947 12.7647C67.7 12.6846 67.7527 12.5487 67.7308 12.4143L67.1129 8.63817L69.7301 5.9639C69.8233 5.86874 69.8568 5.72635 69.8166 5.59664Z" fill="#FFA800"/>
<path d="M88.8166 5.59664C88.7764 5.46691 88.6695 5.37236 88.5407 5.35278L84.924 4.80182L83.3065 1.36622C83.249 1.24392 83.1301 1.1665 83 1.1665C82.8699 1.1665 82.7511 1.24392 82.6935 1.36622L81.076 4.80182L77.4593 5.35278C77.3306 5.37236 77.2236 5.46691 77.1834 5.59662C77.1432 5.72635 77.1768 5.86874 77.2699 5.96393L79.8869 8.63817L79.2692 12.4143C79.2472 12.5487 79.2999 12.6846 79.4052 12.7648C79.4647 12.8101 79.5352 12.8332 79.6061 12.8332C79.6605 12.8332 79.7151 12.8196 79.7651 12.792L83 11.0091L86.2348 12.792C86.35 12.8555 86.4895 12.8449 86.5947 12.7647C86.7 12.6846 86.7527 12.5487 86.7308 12.4143L86.1129 8.63817L88.7301 5.9639C88.8233 5.86874 88.8568 5.72635 88.8166 5.59664Z" fill="#FFA800"/>
</svg>
